<svg width="30" height="14" viewBox="0 0 30 14" fill="none" xmlns="http://www.w3.org/2000/svg">
<path d="M5.33467 10.3013L4.68133 12.336C4.644 12.5476 4.61289 12.7218 4.588 12.8587C4.57556 12.9956 4.55689 13.1013 4.532 13.176C4.48222 13.3502 4.37644 13.4809 4.21467 13.568C4.06533 13.6676 3.89733 13.736 3.71067 13.7733C3.53644 13.8231 3.356 13.848 3.16933 13.848C2.99511 13.8604 2.86444 13.8542 2.77733 13.8293C2.67778 13.8044 2.60933 13.7547 2.572 13.68C2.53467 13.6178 2.50978 13.5431 2.49733 13.456C2.48489 13.3564 2.48489 13.2507 2.49733 13.1387C2.65911 12.4791 2.85822 11.7698 3.09467 11.0107C3.30622 10.3636 3.57378 9.61689 3.89733 8.77067C4.22089 7.92444 4.61289 7.02844 5.07333 6.08267L5.092 6.064L5.50267 5.224C5.75156 4.70133 5.99422 4.23467 6.23067 3.824C6.46711 3.41333 6.67244 3.05867 6.84667 2.76C6.64756 2.72267 6.34889 2.66667 5.95067 2.592C5.56489 2.50489 5.16667 2.424 4.756 2.34933C4.35778 2.26222 3.99689 2.19378 3.67333 2.144C3.36222 2.08178 3.17556 2.05689 3.11333 2.06933C2.86444 2.11911 2.69644 2.20622 2.60933 2.33067C2.59689 2.35556 2.57822 2.41778 2.55333 2.51733C2.52844 2.60444 2.56578 2.68533 2.66533 2.76L2.83333 2.872C2.89556 2.90933 2.92044 2.95289 2.908 3.00267C2.908 3.04 2.90178 3.07111 2.88933 3.096C2.74 3.34489 2.57822 3.51289 2.404 3.6C2.24222 3.68711 2.09911 3.74311 1.97467 3.768C1.81289 3.79289 1.68844 3.768 1.60133 3.69333C1.50178 3.64356 1.396 3.57511 1.284 3.488C1.18444 3.38844 1.09111 3.27022 1.004 3.13333C0.916889 2.984 0.854667 2.82222 0.817333 2.648C0.78 2.47378 0.786222 2.28711 0.836 2.088C0.898222 1.864 0.966667 1.68978 1.04133 1.56533C1.07867 1.50311 1.17822 1.38489 1.34 1.21067C1.51422 1.03644 1.78178 0.899555 2.14267 0.8C2.67778 0.663111 3.30622 0.619556 4.028 0.669333C4.74978 0.719111 5.49022 0.806222 6.24933 0.930667C7.02089 1.05511 7.78 1.192 8.52667 1.34133C9.28578 1.49067 9.97022 1.59022 10.58 1.64C11.6378 1.73956 12.4778 1.752 13.1 1.67733C13.7347 1.60267 14.2262 1.50311 14.5747 1.37867C14.9729 1.24178 15.2529 1.06133 15.4147 0.837334C15.4396 0.762667 15.4707 0.700445 15.508 0.650666C15.5329 0.600889 15.564 0.557334 15.6013 0.52C15.6511 0.482667 15.7071 0.457778 15.7693 0.445334C15.8689 0.420445 15.9684 0.432889 16.068 0.482667C16.1676 0.52 16.2484 0.607111 16.3107 0.744C16.3729 0.905778 16.404 1.06133 16.404 1.21067C16.4164 1.36 16.4164 1.49689 16.404 1.62133C16.3916 1.75822 16.3667 1.89511 16.3293 2.032C16.1427 2.54222 15.788 2.91556 15.2653 3.152C14.7551 3.38844 14.1516 3.53156 13.4547 3.58133C12.7702 3.61867 12.0298 3.59378 11.2333 3.50667C10.4369 3.41956 9.66533 3.30756 8.91867 3.17067C8.85644 3.29511 8.75689 3.43822 8.62 3.6C8.48311 3.74933 8.31511 3.95467 8.116 4.216C7.92933 4.47733 7.71156 4.81956 7.46267 5.24267C7.22622 5.66578 6.97111 6.21333 6.69733 6.88533L5.33467 10.3013ZM8.86157 8.04267C8.91135 8.09244 8.94246 8.15467 8.95491 8.22933C8.96735 8.29156 8.96113 8.37244 8.93624 8.472C8.9238 8.57156 8.88024 8.68978 8.80557 8.82667C8.7558 8.91378 8.68113 9.05067 8.58157 9.23733C8.48202 9.424 8.37002 9.64178 8.24557 9.89067C8.13357 10.1271 8.02157 10.3822 7.90957 10.656C7.79757 10.9173 7.71046 11.1662 7.64824 11.4027C7.58602 11.6267 7.56113 11.8196 7.57357 11.9813C7.58602 12.1431 7.65446 12.2427 7.77891 12.28C7.9158 12.3298 8.05891 12.2862 8.20824 12.1493C8.37002 12.0249 8.52557 11.8693 8.67491 11.6827C8.82424 11.4836 8.95491 11.2782 9.06691 11.0667C9.19135 10.8427 9.29091 10.6622 9.36557 10.5253C9.37802 10.4756 9.40913 10.4258 9.45891 10.376C9.54602 10.2889 9.65802 10.2516 9.79491 10.264C9.91935 10.3013 9.98157 10.376 9.98157 10.488C9.98157 10.5378 9.96913 10.5938 9.94424 10.656C9.86957 10.8178 9.75757 11.0356 9.60824 11.3093C9.47135 11.5707 9.30957 11.8382 9.12291 12.112C8.94868 12.3858 8.7558 12.6409 8.54424 12.8773C8.34513 13.1262 8.13357 13.3129 7.90957 13.4373C7.77268 13.5244 7.6358 13.5742 7.49891 13.5867C7.36202 13.6116 7.23757 13.6178 7.12557 13.6053C6.98868 13.5929 6.86424 13.568 6.75224 13.5307C6.52824 13.4311 6.36646 13.2693 6.26691 13.0453C6.16735 12.8213 6.11757 12.5662 6.11757 12.28C6.10513 11.9938 6.13624 11.6827 6.21091 11.3467C6.27313 10.9982 6.35402 10.656 6.45357 10.32C6.69002 9.536 7.03224 8.66489 7.48024 7.70667C7.50513 7.632 7.54246 7.56978 7.59224 7.52C7.62957 7.47022 7.67313 7.42667 7.72291 7.38933C7.77268 7.352 7.82868 7.34578 7.89091 7.37067C8.00291 7.408 8.15224 7.48267 8.33891 7.59467C8.52557 7.70667 8.6998 7.856 8.86157 8.04267ZM8.33891 6.81067C8.20202 6.66133 8.15846 6.48711 8.20824 6.288C8.25802 6.07644 8.31402 5.91467 8.37624 5.80267C8.43846 5.70311 8.49446 5.616 8.54424 5.54133C8.60646 5.46667 8.65624 5.39822 8.69357 5.336L8.80557 5.168C8.8678 5.08089 8.93002 5.01244 8.99224 4.96267C9.05446 4.91289 9.11668 4.88178 9.17891 4.86933C9.24113 4.84444 9.3158 4.86311 9.40291 4.92533C9.47757 4.97511 9.56468 5.056 9.66424 5.168C9.77624 5.28 9.86957 5.40444 9.94424 5.54133C10.0314 5.67822 10.0874 5.82756 10.1122 5.98933C10.1496 6.13867 10.1309 6.28178 10.0562 6.41867C10.0065 6.49333 9.9318 6.59289 9.83224 6.71733C9.74513 6.84178 9.62068 7.00978 9.45891 7.22133C9.39668 7.296 9.3158 7.33333 9.21624 7.33333C9.11668 7.32089 9.01091 7.28978 8.89891 7.24C8.78691 7.17778 8.68113 7.10933 8.58157 7.03467C8.48202 6.96 8.40113 6.88533 8.33891 6.81067ZM9.47137 10.1893C9.70782 9.55467 9.97537 9.04444 10.274 8.65867C10.5727 8.26044 10.8714 7.96178 11.17 7.76267C11.4687 7.55111 11.7612 7.42667 12.0474 7.38933C12.346 7.352 12.6074 7.37689 12.8314 7.464C13.0429 7.55111 13.1923 7.68178 13.2794 7.856C13.3789 8.01778 13.4412 8.192 13.466 8.37867C13.4785 8.44089 13.4847 8.50933 13.4847 8.584C13.4972 8.65867 13.4972 8.74578 13.4847 8.84533C13.4723 9.01956 13.4287 9.24978 13.354 9.536C13.2794 9.80978 13.1425 10.0898 12.9434 10.376C12.7443 10.6622 12.458 10.936 12.0847 11.1973C11.7238 11.4462 11.2385 11.6267 10.6287 11.7387C10.6038 11.9502 10.6163 12.1556 10.666 12.3547C10.7158 12.5538 10.8589 12.6969 11.0954 12.784C11.1452 12.8089 11.2012 12.8213 11.2634 12.8213H11.282L11.3007 12.84C11.5247 12.8649 11.7363 12.8524 11.9354 12.8027C12.1345 12.7529 12.3149 12.6782 12.4767 12.5787C12.6509 12.4916 12.8003 12.3858 12.9247 12.2613C13.0616 12.1493 13.1798 12.0373 13.2794 11.9253C13.3043 11.9004 13.3229 11.8756 13.3354 11.8507C13.3603 11.8258 13.3852 11.8009 13.41 11.776C13.4847 11.6764 13.5283 11.6204 13.5407 11.608C13.6776 11.4213 13.802 11.2284 13.914 11.0293C14.026 10.8302 14.1132 10.6622 14.1754 10.5253C14.1878 10.4756 14.2189 10.4258 14.2687 10.376C14.3558 10.2889 14.4678 10.2516 14.6047 10.264C14.6794 10.2889 14.7229 10.32 14.7354 10.3573C14.7603 10.3947 14.7727 10.4382 14.7727 10.488C14.7727 10.5378 14.7603 10.5938 14.7354 10.656C14.6732 10.7804 14.5985 10.9298 14.5114 11.104C14.4367 11.2658 14.3372 11.4462 14.2127 11.6453C14.1629 11.7698 14.0447 11.9627 13.858 12.224C13.8332 12.2613 13.802 12.2987 13.7647 12.336C13.7398 12.3858 13.7025 12.4418 13.6527 12.504C13.4038 12.7902 13.0927 13.0702 12.7194 13.344C12.3585 13.6302 11.9292 13.7858 11.4314 13.8107C11.282 13.8356 11.114 13.8356 10.9274 13.8107C10.4669 13.7609 10.106 13.6551 9.84471 13.4933C9.59582 13.3316 9.40915 13.1324 9.28471 12.896C9.17271 12.6844 9.11049 12.4542 9.09804 12.2053C9.07315 11.9564 9.07938 11.7076 9.11671 11.4587V11.44C9.17893 11.0667 9.29715 10.6498 9.47137 10.1893ZM11.0394 10.488C10.9896 10.5876 10.946 10.6747 10.9087 10.7493C10.8838 10.824 10.8589 10.8987 10.834 10.9733C11.17 10.9236 11.4563 10.8178 11.6927 10.656C11.9292 10.4942 12.1283 10.3138 12.29 10.1147C12.4518 9.91556 12.57 9.72267 12.6447 9.536C12.7318 9.33689 12.7816 9.17511 12.794 9.05067C12.8189 8.82667 12.794 8.696 12.7194 8.65867C12.6572 8.60889 12.6136 8.584 12.5887 8.584C12.5265 8.584 12.4456 8.60889 12.346 8.65867C12.2465 8.696 12.1283 8.78311 11.9914 8.92C11.8669 9.04444 11.7238 9.23111 11.562 9.48C11.4003 9.72889 11.226 10.0649 11.0394 10.488ZM16.0385 9.49867C15.9763 9.66044 15.9141 9.82844 15.8519 10.0027C15.7897 10.1769 15.7274 10.3511 15.6652 10.5253C15.9017 10.1271 16.1568 9.72267 16.4305 9.312C16.7168 8.88889 16.9968 8.52178 17.2705 8.21067C17.5568 7.88711 17.8305 7.64444 18.0919 7.48267C18.3657 7.32089 18.6145 7.296 18.8385 7.408C18.9505 7.45778 19.0874 7.53244 19.2492 7.632C19.411 7.73156 19.5665 7.86222 19.7159 8.024C19.7532 8.08622 19.7781 8.15467 19.7905 8.22933C19.803 8.29156 19.803 8.37244 19.7905 8.472C19.7781 8.57156 19.7345 8.68978 19.6599 8.82667C19.5852 8.93867 19.4608 9.15644 19.2865 9.48C19.1248 9.80356 18.963 10.152 18.8012 10.5253C18.7639 10.6 18.6892 10.6373 18.5772 10.6373C18.4652 10.6373 18.347 10.6187 18.2225 10.5813C18.0981 10.544 17.9737 10.5004 17.8492 10.4507C17.7248 10.4009 17.6314 10.3636 17.5692 10.3387C17.4697 10.2889 17.4137 10.2329 17.4012 10.1707C17.3888 10.096 17.3825 10.04 17.3825 10.0027C17.4572 9.79111 17.5319 9.58578 17.6065 9.38667C17.6812 9.18756 17.7559 9.00089 17.8305 8.82667L17.7932 8.84533C17.4448 9.19378 17.1025 9.60444 16.7665 10.0773C16.4803 10.4756 16.1692 10.9733 15.8332 11.5707C15.4972 12.168 15.1861 12.8587 14.8999 13.6427V13.6987C14.8874 13.7733 14.8563 13.8169 14.8065 13.8293C14.7692 13.8542 14.7381 13.8667 14.7132 13.8667C14.4643 13.8418 14.2714 13.7858 14.1345 13.6987C13.9852 13.6116 13.867 13.5182 13.7799 13.4187C13.7177 13.3564 13.6865 13.2818 13.6865 13.1947C13.6741 13.1449 13.6741 13.1076 13.6865 13.0827C13.699 12.8462 13.7301 12.5849 13.7799 12.2987C13.8297 12.0249 13.8857 11.7511 13.9479 11.4773C14.0101 11.1911 14.0785 10.9173 14.1532 10.656C14.2154 10.3947 14.2777 10.1582 14.3399 9.94667C14.4021 9.77244 14.4581 9.60444 14.5079 9.44267C14.5701 9.28089 14.6199 9.144 14.6572 9.032C14.6821 8.98222 14.6945 8.93867 14.6945 8.90133C14.707 8.85156 14.7257 8.80178 14.7505 8.752C14.8128 8.55289 14.875 8.36622 14.9372 8.192C15.0119 8.00533 15.0803 7.84356 15.1425 7.70667C15.2048 7.55733 15.2608 7.41422 15.3105 7.27733C15.3105 7.26489 15.3168 7.25244 15.3292 7.24C15.3292 7.22756 15.3417 7.19644 15.3665 7.14667C15.3914 7.09689 15.4288 7.04711 15.4785 6.99733C15.5408 6.94756 15.6092 6.93511 15.6839 6.96C15.7834 6.98489 15.9203 7.04711 16.0945 7.14667C16.2812 7.23378 16.4492 7.36444 16.5985 7.53867C16.611 7.55111 16.6297 7.576 16.6545 7.61333C16.667 7.63822 16.6794 7.66933 16.6919 7.70667C16.7043 7.744 16.7105 7.78756 16.7105 7.83733C16.7105 7.96178 16.667 8.10489 16.5799 8.26667C16.5799 8.27911 16.5737 8.29156 16.5612 8.304C16.5612 8.304 16.5612 8.31022 16.5612 8.32267C16.5363 8.34756 16.4928 8.42844 16.4305 8.56533C16.3808 8.68978 16.331 8.80178 16.2812 8.90133C16.2314 9.00089 16.1817 9.10667 16.1319 9.21867C16.0945 9.33067 16.0634 9.424 16.0385 9.49867ZM29.1247 1.04267C29.1994 1.10489 29.299 1.19822 29.4234 1.32267C29.5479 1.44711 29.6536 1.59022 29.7407 1.752C29.8403 1.91378 29.9025 2.08178 29.9274 2.256C29.9648 2.43022 29.9399 2.59822 29.8528 2.76C29.7905 2.872 29.6599 3.05244 29.4608 3.30133C29.2616 3.53778 29.0252 3.84889 28.7514 4.23467C28.4901 4.62044 28.2039 5.07467 27.8927 5.59733C27.5816 6.10756 27.2767 6.68622 26.9781 7.33333C26.891 7.50756 26.7665 7.78133 26.6047 8.15467C26.443 8.528 26.2687 8.96978 26.0821 9.48C25.8954 9.97778 25.7088 10.5316 25.5221 11.1413C25.3479 11.7387 25.1985 12.3609 25.0741 13.008C25.0616 13.0702 25.0492 13.12 25.0367 13.1573C25.0367 13.2071 25.0305 13.2569 25.0181 13.3067C24.9932 13.4436 24.9745 13.5556 24.9621 13.6427C24.9496 13.7173 24.9185 13.7609 24.8688 13.7733C24.8314 13.7982 24.8003 13.8107 24.7754 13.8107C24.4892 13.7858 24.2652 13.7111 24.1034 13.5867C23.9541 13.4747 23.8421 13.3689 23.7674 13.2693C23.7674 13.2569 23.7612 13.2444 23.7487 13.232C23.7487 13.232 23.7487 13.2258 23.7487 13.2133C23.7487 12.9644 23.7674 12.6907 23.8048 12.392C23.8545 12.1058 23.9105 11.8133 23.9727 11.5147C24.0474 11.216 24.1221 10.9298 24.1968 10.656C24.2714 10.3698 24.3461 10.1147 24.4207 9.89067C24.4705 9.71644 24.5203 9.54844 24.5701 9.38667C24.6323 9.22489 24.6821 9.08178 24.7194 8.95733C24.8936 8.472 25.0492 8.06756 25.1861 7.744C25.3852 7.22133 25.6092 6.69867 25.8581 6.176C26.1194 5.64089 26.3807 5.13689 26.6421 4.664C26.9034 4.19111 27.1523 3.75556 27.3888 3.35733C27.6376 2.94667 27.843 2.59822 28.0048 2.312C27.5941 2.48622 27.1772 2.62311 26.7541 2.72267C26.3434 2.80978 25.9265 2.84089 25.5034 2.816C25.4412 2.816 25.3665 2.80978 25.2794 2.79733C25.2047 2.77244 25.1301 2.74133 25.0554 2.704C24.9932 2.66667 24.9372 2.62311 24.8874 2.57333C24.8376 2.51111 24.819 2.44267 24.8314 2.368C24.8439 2.23111 24.8501 2.10667 24.8501 1.99467C24.8625 1.87022 24.8874 1.76444 24.9248 1.67733C24.9621 1.59022 25.0181 1.52178 25.0927 1.472C25.1674 1.40978 25.2856 1.37244 25.4474 1.36C25.7585 1.39733 26.0945 1.40978 26.4554 1.39733C26.7665 1.38489 27.1212 1.36 27.5194 1.32267C27.9176 1.27289 28.3345 1.17956 28.7701 1.04267C28.8945 0.980444 29.0127 0.980444 29.1247 1.04267Z" fill="url(#paint0_linear_3242_7377)"/>
<defs>
<linearGradient id="paint0_linear_3242_7377" x1="0.499999" y1="-7.66667" x2="10.8101" y2="32.9014" gradientUnits="userSpaceOnUse">
<stop stop-color="#1F8505"/>
<stop offset="1" stop-color="#0B2E02"/>
</linearGradient>
</defs>
</svg>
