<svg width="21" height="20" viewBox="0 0 21 20" fill="none" xmlns="http://www.w3.org/2000/svg">
<path d="M0.5 10C0.5 4.47715 4.97715 0 10.5 0C16.0228 0 20.5 4.47715 20.5 10C20.5 15.5228 16.0228 20 10.5 20C4.97715 20 0.5 15.5228 0.5 10Z" fill="#D8D8D8"/>
<path opacity="0.2" d="M3.625 17.5C4.66053 17.5 5.5 16.6605 5.5 15.625C5.5 14.5895 4.66053 13.75 3.625 13.75C2.58947 13.75 1.75 14.5895 1.75 15.625C1.75 16.6605 2.58947 17.5 3.625 17.5Z" fill="#2D2D2D"/>
<path opacity="0.2" d="M8 9.375C9.03553 9.375 9.875 8.53553 9.875 7.5C9.875 6.46447 9.03553 5.625 8 5.625C6.96447 5.625 6.125 6.46447 6.125 7.5C6.125 8.53553 6.96447 9.375 8 9.375Z" fill="#2D2D2D"/>
<path opacity="0.2" d="M13 14.375C14.0355 14.375 14.875 13.5355 14.875 12.5C14.875 11.4645 14.0355 10.625 13 10.625C11.9645 10.625 11.125 11.4645 11.125 12.5C11.125 13.5355 11.9645 14.375 13 14.375Z" fill="#2D2D2D"/>
<path opacity="0.2" d="M17.375 6.25C18.4105 6.25 19.25 5.41053 19.25 4.375C19.25 3.33947 18.4105 2.5 17.375 2.5C16.3395 2.5 15.5 3.33947 15.5 4.375C15.5 5.41053 16.3395 6.25 17.375 6.25Z" fill="#2D2D2D"/>
<path d="M3.625 17.5C4.66053 17.5 5.5 16.6605 5.5 15.625C5.5 14.5895 4.66053 13.75 3.625 13.75C2.58947 13.75 1.75 14.5895 1.75 15.625C1.75 16.6605 2.58947 17.5 3.625 17.5Z" stroke="#2D2D2D" stroke-width="2" stroke-linecap="round" stroke-linejoin="round"/>
<path d="M8 9.375C9.03553 9.375 9.875 8.53553 9.875 7.5C9.875 6.46447 9.03553 5.625 8 5.625C6.96447 5.625 6.125 6.46447 6.125 7.5C6.125 8.53553 6.96447 9.375 8 9.375Z" stroke="#2D2D2D" stroke-width="2" stroke-linecap="round" stroke-linejoin="round"/>
<path d="M13 14.375C14.0355 14.375 14.875 13.5355 14.875 12.5C14.875 11.4645 14.0355 10.625 13 10.625C11.9645 10.625 11.125 11.4645 11.125 12.5C11.125 13.5355 11.9645 14.375 13 14.375Z" stroke="#2D2D2D" stroke-width="2" stroke-linecap="round" stroke-linejoin="round"/>
<path d="M17.375 6.25C18.4105 6.25 19.25 5.41053 19.25 4.375C19.25 3.33947 18.4105 2.5 17.375 2.5C16.3395 2.5 15.5 3.33947 15.5 4.375C15.5 5.41053 16.3395 6.25 17.375 6.25Z" stroke="#2D2D2D" stroke-width="2" stroke-linecap="round" stroke-linejoin="round"/>
<path d="M7.10938 9.14844L4.51562 13.9766" stroke="#2D2D2D" stroke-width="2" stroke-linecap="round" stroke-linejoin="round"/>
<path d="M11.6719 11.1719L9.32812 8.82812" stroke="#2D2D2D" stroke-width="2" stroke-linecap="round" stroke-linejoin="round"/>
<path d="M16.4844 6.02344L13.8906 10.8516" stroke="#2D2D2D" stroke-width="2" stroke-linecap="round" stroke-linejoin="round"/>
</svg>
