<svg width="21" height="20" viewBox="0 0 21 20" fill="none" xmlns="http://www.w3.org/2000/svg">
<path d="M0.5 10C0.5 4.47715 4.97715 0 10.5 0C16.0228 0 20.5 4.47715 20.5 10C20.5 15.5228 16.0228 20 10.5 20C4.97715 20 0.5 15.5228 0.5 10Z" fill="#D8D8D8"/>
<path opacity="0.2" d="M2.61719 11.3516C2.27022 10.3446 2.33257 9.24169 2.79081 8.28025C3.24905 7.31881 4.06653 6.57578 5.06723 6.21114C6.06793 5.84651 7.1718 5.88944 8.14115 6.33069C9.11051 6.77194 9.86781 7.57621 10.25 8.57034L2.61719 11.3516Z" fill="#2D2D2D"/>
<path opacity="0.2" d="M17.1328 7.39844C17.4798 8.4054 17.4174 9.50834 16.9592 10.4698C16.5009 11.4312 15.6835 12.1743 14.6828 12.5389C13.6821 12.9035 12.5782 12.8606 11.6088 12.4193C10.6395 11.9781 9.88219 11.1738 9.5 10.1797L17.1328 7.39844Z" fill="#2D2D2D"/>
<path d="M7.89844 2.11719C8.9054 1.77022 10.0083 1.83257 10.9698 2.29081C11.9312 2.74905 12.6743 3.56653 13.0389 4.56723C13.4035 5.56793 13.3606 6.6718 12.9193 7.64115C12.4781 8.61051 11.6738 9.36781 10.6797 9.75L7.89844 2.11719Z" stroke="#2D2D2D" stroke-width="2" stroke-linecap="round" stroke-linejoin="round"/>
<path d="M2.61719 11.3516C2.27022 10.3446 2.33257 9.24169 2.79081 8.28025C3.24905 7.31881 4.06653 6.57578 5.06723 6.21114C6.06793 5.84651 7.1718 5.88944 8.14115 6.33069C9.11051 6.77194 9.86781 7.57621 10.25 8.57034L2.61719 11.3516Z" stroke="#2D2D2D" stroke-width="2" stroke-linecap="round" stroke-linejoin="round"/>
<path d="M11.8516 16.6328C10.8446 16.9798 9.74166 16.9174 8.78022 16.4592C7.81878 16.0009 7.07574 15.1835 6.71111 14.1828C6.34648 13.1821 6.38941 12.0782 6.83066 11.1088C7.27191 10.1395 8.07618 9.38219 9.07031 9L11.8516 16.6328Z" stroke="#2D2D2D" stroke-width="2" stroke-linecap="round" stroke-linejoin="round"/>
<path d="M17.1328 7.39844C17.4798 8.4054 17.4174 9.50834 16.9592 10.4698C16.5009 11.4312 15.6835 12.1743 14.6828 12.5389C13.6821 12.9035 12.5782 12.8606 11.6088 12.4193C10.6395 11.9781 9.88219 11.1738 9.5 10.1797L17.1328 7.39844Z" stroke="#2D2D2D" stroke-width="2" stroke-linecap="round" stroke-linejoin="round"/>
<path d="M13.3516 12.8516L18 17.5" stroke="#2D2D2D" stroke-width="2" stroke-linecap="round" stroke-linejoin="round"/>
</svg>
