<svg width="21" height="21" viewBox="0 0 21 21" fill="none" xmlns="http://www.w3.org/2000/svg">
<path d="M0.5 11C0.5 5.47715 4.97715 1 10.5 1C16.0228 1 20.5 5.47715 20.5 11C20.5 16.5228 16.0228 21 10.5 21C4.97715 21 0.5 16.5228 0.5 11Z" fill="#D8D8D8"/>
<path opacity="0.2" d="M13.1563 10.8438C13.1563 11.5482 12.8764 12.2239 12.3783 12.722C11.8801 13.2202 11.2045 13.5 10.5 13.5C9.79554 13.5 9.11991 13.2202 8.62176 12.722C8.12362 12.2239 7.84377 11.5482 7.84377 10.8438C7.84391 11.5389 7.57158 12.2063 7.0852 12.7029C6.59883 13.1995 5.93716 13.4857 5.2422 13.5C3.75002 13.5313 2.53127 12.2813 2.53127 10.7891V9.75002C2.53023 9.5035 2.57803 9.25922 2.67189 9.03126C2.76575 8.80331 2.90382 8.5962 3.07814 8.42189C3.25245 8.24757 3.45956 8.1095 3.68751 8.01564C3.91547 7.92178 4.15975 7.87398 4.40627 7.87502H16.5938C16.8403 7.87398 17.0846 7.92178 17.3125 8.01564C17.5405 8.1095 17.7476 8.24757 17.9219 8.42189C18.0962 8.5962 18.2343 8.80331 18.3281 9.03126C18.422 9.25922 18.4698 9.5035 18.4688 9.75002V10.7891C18.4688 12.2813 17.25 13.5313 15.7578 13.5C15.0629 13.4857 14.4012 13.1995 13.9148 12.7029C13.4285 12.2063 13.1561 11.5389 13.1563 10.8438Z" fill="#2D2D2D"/>
<path opacity="0.2" d="M10.5 6C14.1094 4.75 10.5 1.625 10.5 1.625C10.5 1.625 6.74998 4.75 10.5 6Z" fill="#2D2D2D"/>
<path d="M10.5 7.875V6" stroke="#2D2D2D" stroke-width="2" stroke-linecap="round" stroke-linejoin="round"/>
<path d="M10.5 6C14.1094 4.75 10.5 1.625 10.5 1.625C10.5 1.625 6.74998 4.75 10.5 6Z" stroke="#2D2D2D" stroke-width="2" stroke-linecap="round" stroke-linejoin="round"/>
<path d="M13.1562 10.8438C13.1562 11.5482 12.8764 12.2239 12.3783 12.722C11.8801 13.2201 11.2045 13.5 10.5 13.5C9.79552 13.5 9.11989 13.2201 8.62175 12.722C8.1236 12.2239 7.84375 11.5482 7.84375 10.8438" stroke="#2D2D2D" stroke-width="2" stroke-linecap="round" stroke-linejoin="round"/>
<path d="M7.84377 10.8438C7.84391 11.5389 7.57158 12.2063 7.0852 12.7029C6.59883 13.1995 5.93716 13.4857 5.2422 13.5C3.75002 13.5313 2.53127 12.2813 2.53127 10.7891V9.75002C2.53023 9.5035 2.57803 9.25922 2.67189 9.03126C2.76575 8.80331 2.90382 8.5962 3.07814 8.42189C3.25245 8.24757 3.45956 8.1095 3.68751 8.01564C3.91547 7.92178 4.15975 7.87398 4.40627 7.87502H16.5938C16.8403 7.87398 17.0846 7.92178 17.3125 8.01564C17.5405 8.1095 17.7476 8.24757 17.9219 8.42189C18.0962 8.5962 18.2343 8.80331 18.3281 9.03126C18.422 9.25922 18.4698 9.5035 18.4688 9.75002V10.7891C18.4688 12.2813 17.25 13.5313 15.7578 13.5C15.0629 13.4857 14.4012 13.1995 13.9148 12.7029C13.4285 12.2063 13.1561 11.5389 13.1563 10.8438" stroke="#2D2D2D" stroke-width="2" stroke-linecap="round" stroke-linejoin="round"/>
<path d="M17.375 12.9766V17.25C17.375 17.4158 17.3092 17.5747 17.1919 17.6919C17.0747 17.8092 16.9158 17.875 16.75 17.875H4.25C4.08424 17.875 3.92527 17.8092 3.80806 17.6919C3.69085 17.5747 3.625 17.4158 3.625 17.25V12.9766" stroke="#2D2D2D" stroke-width="2" stroke-linecap="round" stroke-linejoin="round"/>
</svg>
