<svg width="21" height="20" viewBox="0 0 21 20" fill="none" xmlns="http://www.w3.org/2000/svg">
<g opacity="0.4">
<path d="M0.5 10C0.5 4.47715 4.97715 0 10.5 0C16.0228 0 20.5 4.47715 20.5 10C20.5 15.5228 16.0228 20 10.5 20C4.97715 20 0.5 15.5228 0.5 10Z" fill="#D8D8D8"/>
<path opacity="0.2" d="M3.08594 5.82812C3.02933 5.92536 2.99966 6.03593 3 6.14844V13.8516C3.0006 13.9628 3.03053 14.072 3.08676 14.168C3.143 14.264 3.22356 14.3435 3.32032 14.3984L10.1953 18.2656C10.288 18.3186 10.3933 18.3456 10.5 18.3438L10.5703 10L3.08594 5.82812Z" fill="#2D2D2D"/>
<path d="M18 13.8515V6.14841C17.9994 6.03714 17.9695 5.928 17.9132 5.83199C17.857 5.73597 17.7764 5.65648 17.6797 5.60154L10.8047 1.73435C10.7121 1.68087 10.607 1.65271 10.5 1.65271C10.393 1.65271 10.2879 1.68087 10.1953 1.73435L3.32031 5.60154C3.22356 5.65648 3.143 5.73597 3.08676 5.83199C3.03052 5.928 3.0006 6.03714 3 6.14841V13.8515C3.0006 13.9628 3.03052 14.072 3.08676 14.168C3.143 14.264 3.22356 14.3435 3.32031 14.3984L10.1953 18.2656C10.2879 18.3191 10.393 18.3472 10.5 18.3472C10.607 18.3472 10.7121 18.3191 10.8047 18.2656L17.6797 14.3984C17.7764 14.3435 17.857 14.264 17.9132 14.168C17.9695 14.072 17.9994 13.9628 18 13.8515V13.8515Z" stroke="#2D2D2D" stroke-width="2" stroke-linecap="round" stroke-linejoin="round"/>
<path d="M17.9141 5.82812L10.5703 10L3.08594 5.82812" stroke="#2D2D2D" stroke-width="2" stroke-linecap="round" stroke-linejoin="round"/>
<path d="M10.5703 10L10.5 18.3438" stroke="#2D2D2D" stroke-width="2" stroke-linecap="round" stroke-linejoin="round"/>
</g>
</svg>
