<svg width="21" height="20" viewBox="0 0 21 20" fill="none" xmlns="http://www.w3.org/2000/svg">
<path d="M13 6.875H4.25C3.90482 6.875 3.625 7.15482 3.625 7.5V16.25C3.625 16.5952 3.90482 16.875 4.25 16.875H13C13.3452 16.875 13.625 16.5952 13.625 16.25V7.5C13.625 7.15482 13.3452 6.875 13 6.875Z" stroke="#2D2D2D" stroke-width="2" stroke-linecap="round" stroke-linejoin="round"/>
<path d="M13 3.125H11.75" stroke="#2D2D2D" stroke-width="2" stroke-linecap="round" stroke-linejoin="round"/>
<path d="M16.125 3.125H16.75C16.9158 3.125 17.0747 3.19085 17.1919 3.30806C17.3092 3.42527 17.375 3.58424 17.375 3.75V4.375" stroke="#2D2D2D" stroke-width="2" stroke-linecap="round" stroke-linejoin="round"/>
<path d="M17.375 8.75V7.5" stroke="#2D2D2D" stroke-width="2" stroke-linecap="round" stroke-linejoin="round"/>
<path d="M16.125 13.125H16.75C16.9158 13.125 17.0747 13.0592 17.1919 12.9419C17.3092 12.8247 17.375 12.6658 17.375 12.5V11.875" stroke="#2D2D2D" stroke-width="2" stroke-linecap="round" stroke-linejoin="round"/>
<path d="M8.625 3.125H8C7.83424 3.125 7.67527 3.19085 7.55806 3.30806C7.44085 3.42527 7.375 3.58424 7.375 3.75V4.375" stroke="#2D2D2D" stroke-width="2" stroke-linecap="round" stroke-linejoin="round"/>
<path opacity="0.2" d="M16.75 3.125H8C7.83424 3.125 7.67527 3.19085 7.55806 3.30806C7.44085 3.42527 7.375 3.58424 7.375 3.75V6.875H13C13.1658 6.875 13.3247 6.94085 13.4419 7.05806C13.5592 7.17527 13.625 7.33424 13.625 7.5V13.125H16.75C16.9158 13.125 17.0747 13.0592 17.1919 12.9419C17.3092 12.8247 17.375 12.6658 17.375 12.5V3.75C17.375 3.58424 17.3092 3.42527 17.1919 3.30806C17.0747 3.19085 16.9158 3.125 16.75 3.125Z" fill="#2D2D2D"/>
</svg>
