<svg width="21" height="20" viewBox="0 0 21 20" fill="none" xmlns="http://www.w3.org/2000/svg">
<path d="M0.5 10C0.5 4.47715 4.97715 0 10.5 0C16.0228 0 20.5 4.47715 20.5 10C20.5 15.5228 16.0228 20 10.5 20C4.97715 20 0.5 15.5228 0.5 10Z" fill="#D8D8D8"/>
<path opacity="0.2" d="M17.375 3.75H3.625C3.45924 3.75 3.30027 3.81585 3.18306 3.93306C3.06585 4.05027 3 4.20924 3 4.375V15.625C3 15.7908 3.06585 15.9497 3.18306 16.0669C3.30027 16.1842 3.45924 16.25 3.625 16.25H5.19531C5.58313 15.1531 6.30154 14.2034 7.25158 13.5318C8.20162 12.8602 9.33654 12.4997 10.5 12.5C9.88193 12.5 9.27775 12.3167 8.76384 11.9733C8.24994 11.63 7.8494 11.1419 7.61288 10.5709C7.37635 9.99987 7.31447 9.37153 7.43505 8.76534C7.55562 8.15915 7.85325 7.60233 8.29029 7.16529C8.72733 6.72825 9.28415 6.43062 9.89034 6.31005C10.4965 6.18947 11.1249 6.25135 11.6959 6.48788C12.2669 6.7244 12.755 7.12494 13.0983 7.63884C13.4417 8.15275 13.625 8.75693 13.625 9.375C13.625 10.2038 13.2958 10.9987 12.7097 11.5847C12.1237 12.1708 11.3288 12.5 10.5 12.5C11.6635 12.4997 12.7984 12.8602 13.7484 13.5318C14.6985 14.2034 15.4169 15.1531 15.8047 16.25H17.375C17.5408 16.25 17.6997 16.1842 17.8169 16.0669C17.9342 15.9497 18 15.7908 18 15.625V4.375C18 4.20924 17.9342 4.05027 17.8169 3.93306C17.6997 3.81585 17.5408 3.75 17.375 3.75Z" fill="#2D2D2D"/>
<path d="M10.5 12.5C12.2259 12.5 13.625 11.1009 13.625 9.375C13.625 7.64911 12.2259 6.25 10.5 6.25C8.77411 6.25 7.375 7.64911 7.375 9.375C7.375 11.1009 8.77411 12.5 10.5 12.5Z" stroke="#2D2D2D" stroke-width="2" stroke-linecap="round" stroke-linejoin="round"/>
<path d="M17.375 3.75H3.625C3.27982 3.75 3 4.02982 3 4.375V15.625C3 15.9702 3.27982 16.25 3.625 16.25H17.375C17.7202 16.25 18 15.9702 18 15.625V4.375C18 4.02982 17.7202 3.75 17.375 3.75Z" stroke="#2D2D2D" stroke-width="2" stroke-linecap="round" stroke-linejoin="round"/>
<path d="M5.19531 16.25C5.58248 15.1524 6.30061 14.2019 7.2507 13.5295C8.2008 12.8572 9.33607 12.4961 10.5 12.4961C11.6639 12.4961 12.7992 12.8572 13.7493 13.5295C14.6994 14.2019 15.4175 15.1524 15.8047 16.25" stroke="#2D2D2D" stroke-width="2" stroke-linecap="round" stroke-linejoin="round"/>
</svg>
