<svg width="21" height="20" viewBox="0 0 21 20" fill="none" xmlns="http://www.w3.org/2000/svg">
<path opacity="0.2" d="M5.94421 17.0545C5.88605 17.1136 5.81673 17.1605 5.74028 17.1925C5.66383 17.2245 5.58178 17.241 5.49889 17.241C5.41601 17.241 5.33396 17.2245 5.25751 17.1925C5.18106 17.1605 5.11174 17.1136 5.05358 17.0545L3.44421 15.4451C3.38515 15.387 3.33826 15.3177 3.30625 15.2412C3.27424 15.1648 3.25775 15.0827 3.25775 14.9998C3.25775 14.9169 3.27424 14.8349 3.30625 14.7584C3.33826 14.682 3.38515 14.6127 3.44421 14.5545L11.7489 6.24982L14.2489 8.74982L5.94421 17.0545Z" fill="#2D2D2D"/>
<path d="M17.3746 10V13.75" stroke="#2D2D2D" stroke-width="1.44817" stroke-linecap="round" stroke-linejoin="round"/>
<path d="M15.4993 11.8749H19.2493" stroke="#2D2D2D" stroke-width="1.44817" stroke-linecap="round" stroke-linejoin="round"/>
<path d="M7.06201 3.12512V6.25012" stroke="#2D2D2D" stroke-width="1.44817" stroke-linecap="round" stroke-linejoin="round"/>
<path d="M5.50073 4.68744H8.62573" stroke="#2D2D2D" stroke-width="1.44817" stroke-linecap="round" stroke-linejoin="round"/>
<path d="M13.624 14.3749V16.8749" stroke="#2D2D2D" stroke-width="1.44817" stroke-linecap="round" stroke-linejoin="round"/>
<path d="M12.3738 15.6251H14.8738" stroke="#2D2D2D" stroke-width="1.44817" stroke-linecap="round" stroke-linejoin="round"/>
<path d="M15.0655 2.93984L3.44798 14.5574C3.20391 14.8015 3.20391 15.1972 3.44798 15.4413L5.06383 17.0571C5.30791 17.3012 5.70364 17.3012 5.94772 17.0571L17.5653 5.43958C17.8093 5.1955 17.8093 4.79977 17.5653 4.55569L15.9494 2.93984C15.7053 2.69577 15.3096 2.69577 15.0655 2.93984Z" stroke="#2D2D2D" stroke-width="1.44817" stroke-linecap="round" stroke-linejoin="round"/>
<path d="M11.7488 6.24982L14.2488 8.74982" stroke="#2D2D2D" stroke-width="1.44817" stroke-linecap="round" stroke-linejoin="round"/>
</svg>
