<svg width="14" height="14" viewBox="0 0 14 14" fill="none" xmlns="http://www.w3.org/2000/svg">
<path d="M5.781 0.0165171C2.59319 0.0165171 0 2.60971 0 5.79751C0 8.98532 2.59319 11.5785 5.781 11.5785C6.75551 11.5785 7.7135 11.3473 8.52284 10.9013C8.58767 10.9793 8.65955 11.0512 8.73756 11.116L10.3893 12.7677C10.5418 12.9394 10.7278 13.078 10.9358 13.1751C11.1438 13.2723 11.3695 13.3258 11.599 13.3326C11.8285 13.3394 12.057 13.2991 12.2703 13.2144C12.4837 13.1297 12.6775 13.0022 12.8399 12.8399C13.0022 12.6775 13.1297 12.4837 13.2144 12.2703C13.2991 12.057 13.3394 11.8285 13.3326 11.599C13.3258 11.3695 13.2723 11.1438 13.1751 10.9358C13.078 10.7278 12.9394 10.5418 12.7677 10.3893L11.116 8.73756C11.0356 8.65707 10.947 8.58512 10.8518 8.52284C11.2977 7.7135 11.5785 6.77202 11.5785 5.781C11.5785 2.59319 8.98532 0 5.79751 0L5.781 0.0165171ZM5.781 1.66823C8.07688 1.66823 9.91028 3.50163 9.91028 5.79751C9.91028 6.88764 9.51387 7.89519 8.82015 8.63846C8.80363 8.65498 8.78711 8.67149 8.7706 8.68801C8.69258 8.75284 8.6207 8.82472 8.55587 8.90273C7.82912 9.56342 6.83809 9.94331 5.76448 9.94331C3.4686 9.94331 1.6352 8.10991 1.6352 5.81403C1.6352 3.51815 3.4686 1.68475 5.76448 1.68475L5.781 1.66823Z" fill="#F8F9FF"/>
</svg>
